<mxfile host="app.diagrams.net" modified="2021-06-01T17:10:25.386Z" agent="5.0 (Macintosh; Intel Mac OS X 10_15_7) AppleWebKit/605.1.15 (KHTML, like Gecko) Version/14.1.1 Safari/605.1.15" etag="qGIr3hoEi0X4TyKjxapB" version="14.7.3" type="github">
  <diagram id="IgLJb1cPBx3nuay1mZ5Q" name="Page-1">
    <mxGraphModel dx="946" dy="645" grid="1" gridSize="10" guides="1" tooltips="1" connect="1" arrows="1" fold="1" page="1" pageScale="1" pageWidth="827" pageHeight="1169" math="0" shadow="0">
      <root>
        <mxCell id="0" />
        <mxCell id="1" parent="0" />
        <mxCell id="_KpY3GYrZ5TwgtVgF2E3-1" value="User" style="shape=umlActor;verticalLabelPosition=bottom;verticalAlign=top;html=1;outlineConnect=0;" vertex="1" parent="1">
          <mxGeometry x="70" y="145" width="30" height="70" as="geometry" />
        </mxCell>
        <mxCell id="_KpY3GYrZ5TwgtVgF2E3-5" value="Eingabe der Kreditdaten" style="ellipse;whiteSpace=wrap;html=1;" vertex="1" parent="1">
          <mxGeometry x="170" y="140" width="120" height="80" as="geometry" />
        </mxCell>
        <mxCell id="_KpY3GYrZ5TwgtVgF2E3-7" value="" style="endArrow=classic;html=1;entryX=0;entryY=0.5;entryDx=0;entryDy=0;" edge="1" parent="1" source="_KpY3GYrZ5TwgtVgF2E3-1" target="_KpY3GYrZ5TwgtVgF2E3-5">
          <mxGeometry width="50" height="50" relative="1" as="geometry">
            <mxPoint x="110" y="210" as="sourcePoint" />
            <mxPoint x="160" y="160" as="targetPoint" />
          </mxGeometry>
        </mxCell>
        <mxCell id="_KpY3GYrZ5TwgtVgF2E3-10" value="Berechnung der Zinsen" style="ellipse;whiteSpace=wrap;html=1;" vertex="1" parent="1">
          <mxGeometry x="230" y="280" width="120" height="80" as="geometry" />
        </mxCell>
        <mxCell id="_KpY3GYrZ5TwgtVgF2E3-12" value="zur Liste hinzufÃ¼gen" style="ellipse;whiteSpace=wrap;html=1;" vertex="1" parent="1">
          <mxGeometry x="370" y="140" width="120" height="80" as="geometry" />
        </mxCell>
        <mxCell id="_KpY3GYrZ5TwgtVgF2E3-15" value="&amp;lt;&amp;lt;includes&lt;font size=&quot;1&quot;&gt;&amp;gt;&amp;gt;&lt;/font&gt;" style="text;html=1;strokeColor=none;fillColor=none;align=center;verticalAlign=middle;whiteSpace=wrap;rounded=0;" vertex="1" parent="1">
          <mxGeometry x="210" y="250" width="40" height="20" as="geometry" />
        </mxCell>
        <mxCell id="_KpY3GYrZ5TwgtVgF2E3-16" value="" style="endArrow=classic;html=1;entryX=0;entryY=0.5;entryDx=0;entryDy=0;exitX=1;exitY=0.5;exitDx=0;exitDy=0;" edge="1" parent="1" source="_KpY3GYrZ5TwgtVgF2E3-5" target="_KpY3GYrZ5TwgtVgF2E3-12">
          <mxGeometry width="50" height="50" relative="1" as="geometry">
            <mxPoint x="300" y="200" as="sourcePoint" />
            <mxPoint x="350" y="150" as="targetPoint" />
          </mxGeometry>
        </mxCell>
        <mxCell id="_KpY3GYrZ5TwgtVgF2E3-17" value="XML-Datei generieren" style="ellipse;whiteSpace=wrap;html=1;" vertex="1" parent="1">
          <mxGeometry x="440" y="280" width="120" height="80" as="geometry" />
        </mxCell>
        <mxCell id="_KpY3GYrZ5TwgtVgF2E3-18" value="" style="endArrow=block;endSize=16;endFill=0;html=1;exitX=0.5;exitY=0;exitDx=0;exitDy=0;entryX=0.5;entryY=1;entryDx=0;entryDy=0;" edge="1" parent="1" source="_KpY3GYrZ5TwgtVgF2E3-17" target="_KpY3GYrZ5TwgtVgF2E3-12">
          <mxGeometry x="1" y="-191" width="160" relative="1" as="geometry">
            <mxPoint x="430" y="250" as="sourcePoint" />
            <mxPoint x="430" y="230" as="targetPoint" />
            <mxPoint x="-1" y="-20" as="offset" />
          </mxGeometry>
        </mxCell>
        <mxCell id="_KpY3GYrZ5TwgtVgF2E3-19" value="&amp;lt;&amp;lt;includes&lt;font size=&quot;1&quot;&gt;&amp;gt;&amp;gt;&lt;/font&gt;" style="text;html=1;strokeColor=none;fillColor=none;align=center;verticalAlign=middle;whiteSpace=wrap;rounded=0;" vertex="1" parent="1">
          <mxGeometry x="420" y="250" width="40" height="20" as="geometry" />
        </mxCell>
        <mxCell id="_KpY3GYrZ5TwgtVgF2E3-20" value="" style="endArrow=block;endSize=16;endFill=0;html=1;exitX=0.5;exitY=0;exitDx=0;exitDy=0;entryX=0.5;entryY=1;entryDx=0;entryDy=0;" edge="1" parent="1" source="_KpY3GYrZ5TwgtVgF2E3-10">
          <mxGeometry x="1" y="-191" width="160" relative="1" as="geometry">
            <mxPoint x="310" y="280" as="sourcePoint" />
            <mxPoint x="230" y="220" as="targetPoint" />
            <mxPoint x="-1" y="-20" as="offset" />
          </mxGeometry>
        </mxCell>
        <mxCell id="_KpY3GYrZ5TwgtVgF2E3-21" value="" style="endArrow=classic;html=1;entryX=0;entryY=0.5;entryDx=0;entryDy=0;exitX=1;exitY=0.5;exitDx=0;exitDy=0;" edge="1" parent="1" source="_KpY3GYrZ5TwgtVgF2E3-12" target="_KpY3GYrZ5TwgtVgF2E3-22">
          <mxGeometry width="50" height="50" relative="1" as="geometry">
            <mxPoint x="510" y="200" as="sourcePoint" />
            <mxPoint x="560" y="150" as="targetPoint" />
          </mxGeometry>
        </mxCell>
        <mxCell id="_KpY3GYrZ5TwgtVgF2E3-22" value="Liste als XLM abspeichern" style="ellipse;whiteSpace=wrap;html=1;" vertex="1" parent="1">
          <mxGeometry x="590" y="140" width="120" height="80" as="geometry" />
        </mxCell>
      </root>
    </mxGraphModel>
  </diagram>
</mxfile>
